<svg xmlns="http://www.w3.org/2000/svg" viewBox="0 0 32 32" id="slack">
  <path d="M12 16a3 3 0 0 0 0-6H6a3 3 0 0 0 0 6zm-7-3a1 1 0 0 1 1-1h6a1 1 0 0 1 0 2H6a1 1 0 0 1-1-1zm21 3a1 1 0 0 0 0 2 1 1 0 0 1 0 2h-6a1 1 0 0 1 0-2h2a1 1 0 0 0 0-2h-2a3 3 0 0 0 0 6h6a3 3 0 0 0 0-6zm-13 1a3 3 0 0 0-3 3v6a3 3 0 0 0 6 0v-6a3 3 0 0 0-3-3zm1 9a1 1 0 0 1-2 0v-6a1 1 0 0 1 2 0zm8-14V6a3 3 0 0 0-6 0v6a3 3 0 0 0 6 0zm-4 0V6a1 1 0 0 1 2 0v6a1 1 0 0 1-2 0zm10 .5a2.5 2.5 0 0 0-5 0V15h2.5a2.5 2.5 0 0 0 2.5-2.5zm-3 0a.5.5 0 1 1 .5.5H25zM19.5 23H17v2.5a2.5 2.5 0 1 0 2.5-2.5zm0 3a.5.5 0 0 1-.5-.5V25h.5a.5.5 0 0 1 0 1zM4 19.5a2.5 2.5 0 0 0 5 0V17H6.5A2.5 2.5 0 0 0 4 19.5zm3 0a.5.5 0 1 1-.5-.5H7zM12.5 9H15V6.5A2.5 2.5 0 1 0 12.5 9zm0-3a.5.5 0 0 1 .5.5V7h-.5a.5.5 0 0 1 0-1z"></path>
</svg>
